<svg width="200" height="27" viewBox="0 0 200 27" fill="none" xmlns="http://www.w3.org/2000/svg">
<g clip-path="url(#clip0_12213_25432)">
<path d="M73.0654 16.504C73.0654 13.0613 72.2544 10.3375 70.6575 8.40225C69.0282 6.42966 66.7471 5.42969 63.8691 5.42969C60.991 5.42969 58.5906 6.46697 56.822 8.5117C55.1529 10.442 54.3071 12.8972 54.3071 15.8075C54.3071 18.8199 55.0758 21.2601 56.5907 23.0686C58.2623 25.0461 60.7149 26.0536 63.8691 26.0536C66.3566 26.0536 68.3914 25.4143 69.9286 24.1506C71.2346 23.0685 72.2271 21.4965 72.8763 19.4816L73.0604 18.9045H69.5058L69.4187 19.2477C69.1563 20.4286 68.457 21.4666 67.461 22.1531C66.4026 22.8646 65.1489 23.2288 63.8741 23.1954C61.8841 23.1954 60.3617 22.5785 59.2548 21.3049C58.2946 20.2005 57.7623 18.7378 57.7026 16.9543H73.0654V16.504ZM63.8616 8.28285C65.7272 8.28285 67.1426 8.90224 68.1948 10.1734C69.0804 11.238 69.563 12.6136 69.6401 14.2603H57.7598C57.9794 12.7681 58.606 11.3652 59.5707 10.2057C60.0953 9.5799 60.7553 9.0816 61.5008 8.74848C62.2464 8.41535 63.0579 8.25613 63.8741 8.28285H63.8616Z" fill="#10B981"/>
<path d="M82.605 8.77306H86.9955V5.53931H82.3613V3.39509C82.3613 -0.0078144 79.028 -0.0078125 79.028 -0.0078125V5.53931H75.8291V8.77306H79.0355V18.2952C79.0355 20.6459 79.8041 22.5488 81.3165 23.9568C82.8289 25.3647 84.6622 26.0463 86.9831 26.0463V22.8871C85.3836 22.8871 84.1995 22.3623 83.3563 21.2852C82.6786 20.395 82.3273 19.299 82.3613 18.1808V8.77306H82.605Z" fill="#10B981"/>
<path d="M42.8793 8.59379C44.4812 8.59379 45.6702 9.11616 46.516 10.1932C47.1931 11.0827 47.5444 12.1778 47.511 13.2952V22.6482C47.511 26.0486 50.8443 26.0486 50.8443 26.0486V13.1832C50.8443 10.8649 50.098 8.97438 48.6204 7.55153C47.1055 6.1237 45.2349 5.42969 42.8992 5.42969C40.5634 5.42969 38.7301 6.11375 37.2351 7.52168C35.7401 8.9296 34.9541 10.8325 34.9541 13.1832V26.0486H38.2824V13.3026C38.2474 12.1842 38.5988 11.0879 39.2774 10.1982C40.0958 9.11616 41.2798 8.59379 42.8793 8.59379Z" fill="#10B981"/>
<path d="M105.02 7.54956C103.507 6.12174 101.639 5.42773 99.2986 5.42773C97.4902 5.42773 95.9729 5.8506 94.6818 6.69884V0H91.3511V26.0466H94.6794V13.3007C94.6444 12.1823 94.9958 11.086 95.6744 10.1963C96.5176 9.12166 97.7017 8.59929 99.3011 8.59929C100.901 8.59929 102.092 9.12166 102.935 10.1988C103.606 11.0904 103.951 12.1855 103.91 13.3007V22.6835C103.91 26.0839 107.244 26.0839 107.244 26.0839V13.1813C107.249 10.8629 106.497 8.97242 105.02 7.54956Z" fill="#10B981"/>
<path d="M118.009 25.6478L110.654 5.83984H114.293L119.848 22.3494H119.925L125.328 5.83984H128.735L121.497 25.6453L118.009 25.6478Z" fill="#10B981"/>
<path d="M131.273 11.6797C131.652 10.467 132.278 9.34573 133.111 8.38629C133.946 7.44006 134.979 6.68857 136.136 6.18485C138.797 5.11026 141.771 5.11026 144.432 6.18485C145.583 6.6915 146.61 7.44271 147.442 8.38629C148.275 9.34621 148.901 10.4673 149.283 11.6797C149.699 13 149.905 14.3774 149.895 15.7617C149.906 17.1388 149.7 18.509 149.283 19.8213C148.899 21.0273 148.272 22.1421 147.442 23.0974C146.614 24.0382 145.588 24.7833 144.437 25.2789C141.771 26.3269 138.807 26.3269 136.141 25.2789C134.983 24.7867 133.949 24.0413 133.116 23.0974C132.284 22.143 131.657 21.028 131.273 19.8213C130.854 18.5094 130.646 17.139 130.659 15.7617C130.647 14.3772 130.855 12.9996 131.273 11.6797ZM134.586 18.9582C134.864 19.8189 135.313 20.6144 135.907 21.2964C136.454 21.9116 137.127 22.4012 137.88 22.7317C138.635 23.0622 139.45 23.2328 140.274 23.2328C141.098 23.2328 141.913 23.0622 142.668 22.7317C143.422 22.4012 144.095 21.9116 144.641 21.2964C145.235 20.6141 145.685 19.8188 145.964 18.9582C146.598 16.8693 146.593 14.6387 145.949 12.5529C145.668 11.6882 145.218 10.8876 144.626 10.1972C144.083 9.57246 143.41 9.0748 142.653 8.73952C141.898 8.41136 141.083 8.24201 140.259 8.24201C139.435 8.24201 138.621 8.41136 137.865 8.73952C137.108 9.0748 136.435 9.57246 135.892 10.1972C135.3 10.8871 134.851 11.6879 134.572 12.5529C133.931 14.6366 133.931 16.8645 134.572 18.9482L134.586 18.9582Z" fill="#10B981"/>
<path d="M174.058 9.28749C173.24 8.59928 172.142 8.25435 170.764 8.25269C169.742 8.21714 168.727 8.44136 167.814 8.90441C167.05 9.31345 166.398 9.90575 165.919 10.6283C165.429 11.3811 165.084 12.2188 164.901 13.0983C164.695 14.0488 164.593 15.0188 164.595 15.9913C164.594 16.8951 164.703 17.7957 164.921 18.6728C165.119 19.4997 165.463 20.2847 165.936 20.9912C166.398 21.6696 167.015 22.2274 167.737 22.618C168.551 23.0457 169.462 23.2572 170.381 23.2324C171.988 23.2324 173.246 22.8104 174.155 21.9663C175.064 21.1222 175.618 19.9348 175.819 18.4042H179.152C178.794 20.8569 177.882 22.7465 176.416 24.0732C174.95 25.3999 172.952 26.0632 170.421 26.0632C169.052 26.088 167.692 25.8411 166.419 25.3368C165.3 24.883 164.303 24.1744 163.506 23.2672C162.705 22.3335 162.105 21.2445 161.745 20.0683C161.336 18.7475 161.136 17.3712 161.15 15.9888C161.14 14.5828 161.333 13.1827 161.725 11.8322C162.076 10.6043 162.668 9.45854 163.466 8.46164C164.257 7.49423 165.26 6.72078 166.396 6.2005C167.686 5.62848 169.085 5.34737 170.496 5.37714C171.562 5.3698 172.624 5.50532 173.655 5.78011C174.594 6.02798 175.478 6.44986 176.262 7.02386C177.022 7.59566 177.654 8.32011 178.117 9.15068C178.63 10.0918 178.943 11.1281 179.038 12.1954H175.662C175.407 10.9417 174.872 9.97238 174.058 9.28749Z" fill="#10B981"/>
<path d="M196.806 24.3832C195.325 25.5042 193.461 26.0656 191.214 26.0672C189.804 26.1 188.402 25.8391 187.098 25.3011C185.971 24.8173 184.969 24.0841 184.167 23.1568C183.35 22.1941 182.743 21.0715 182.384 19.8609C181.975 18.5058 181.75 17.1019 181.715 15.6869C181.699 14.2814 181.932 12.8842 182.404 11.5601C182.832 10.36 183.49 9.25425 184.339 8.30399C185.161 7.38958 186.166 6.6582 187.289 6.15727C188.464 5.63881 189.736 5.37759 191.02 5.39113C192.782 5.39113 194.243 5.75513 195.406 6.48313C196.539 7.18308 197.496 8.13364 198.204 9.26167C198.908 10.3891 199.401 11.6347 199.659 12.9382C199.92 14.1849 200.03 15.4587 199.985 16.7316H185.16C185.131 17.566 185.234 18.3997 185.466 19.2017C185.685 19.9621 186.064 20.6669 186.578 21.2688C187.113 21.8881 187.78 22.3794 188.53 22.7066C189.413 23.083 190.367 23.2662 191.326 23.2439C192.708 23.2439 193.838 22.9247 194.717 22.2862C195.596 21.6478 196.176 20.6768 196.458 19.3734H199.679C199.247 21.5889 198.289 23.2588 196.806 24.3832ZM196.023 11.6646C195.597 10.6427 194.875 9.77164 193.95 9.1638C193.024 8.55596 191.938 8.23916 190.831 8.25423C190.05 8.24223 189.274 8.39214 188.553 8.69453C187.897 8.97482 187.304 9.38523 186.812 9.90096C186.323 10.4194 185.933 11.0231 185.662 11.682C185.378 12.3719 185.21 13.1039 185.165 13.8486H196.543C196.493 13.0965 196.318 12.3582 196.023 11.6646Z" fill="#10B981"/>
<path d="M157.16 5.83984V25.6453H153.909V5.83984H157.16Z" fill="#10B981"/>
<path d="M155.533 3.68806C156.473 3.68806 157.235 2.92629 157.235 1.98661C157.235 1.04692 156.473 0.285156 155.533 0.285156C154.594 0.285156 153.832 1.04692 153.832 1.98661C153.832 2.92629 154.594 3.68806 155.533 3.68806Z" fill="#10B981"/>
<path d="M19.5841 19.8119C18.3428 19.8128 17.1137 19.5678 15.9677 19.0909C14.8218 18.614 13.7817 17.9146 12.9076 17.0333C11.5282 15.6595 9.6606 14.8882 7.71374 14.8882C5.76688 14.8882 3.89931 15.6595 2.51984 17.0333L2.34073 17.2124L0 14.8692L0.17661 14.6901C2.17749 12.6947 4.88796 11.5742 7.71374 11.5742C10.5395 11.5742 13.25 12.6947 15.2509 14.6901C15.8207 15.2614 16.4976 15.7147 17.2429 16.024C17.9882 16.3332 18.7871 16.4924 19.594 16.4924C20.4009 16.4924 21.1999 16.3332 21.9452 16.024C22.6905 15.7147 23.3674 15.2614 23.9372 14.6901L24.1138 14.511L26.4595 16.8517L26.2804 17.0308C25.4043 17.9151 24.3611 18.6163 23.2115 19.0938C22.0619 19.5712 20.8289 19.8153 19.5841 19.8119Z" fill="#10B981"/>
</g>
<defs>
<clipPath id="clip0_12213_25432">
<rect width="200" height="26.075" fill="white"/>
</clipPath>
</defs>
</svg>
