<svg width="326" height="43" viewBox="0 0 326 43" fill="none" xmlns="http://www.w3.org/2000/svg">
<g clip-path="url(#clip0_12031_21507)">
<path d="M119.097 27.2157C119.097 21.5384 117.775 17.0466 115.172 13.8551C112.516 10.6022 108.798 8.95312 104.107 8.95312C99.4154 8.95312 95.5027 10.6637 92.6199 14.0356C89.8992 17.2189 88.5206 21.2677 88.5206 26.0671C88.5206 31.0348 89.7735 35.059 92.2428 38.0412C94.9675 41.3024 98.9653 42.9637 104.107 42.9637C108.161 42.9637 111.478 41.9095 113.984 39.8256C116.112 38.0412 117.73 35.4486 118.788 32.1259L119.088 31.1742H113.294L113.152 31.7403C112.725 33.6877 111.585 35.3994 109.961 36.5316C108.236 37.7048 106.193 38.3055 104.115 38.2504C100.871 38.2504 98.3896 37.2331 96.5853 35.1328C95.0202 33.3115 94.1525 30.8994 94.0552 27.9582H119.097V27.2157ZM104.094 13.6582C107.135 13.6582 109.443 14.6797 111.158 16.7759C112.601 18.5316 113.388 20.8 113.513 23.5156H94.1485C94.5065 21.0548 95.5278 18.7413 97.1002 16.8292C97.9553 15.7972 99.0311 14.9755 100.246 14.4261C101.462 13.8768 102.784 13.6142 104.115 13.6582H104.094Z" fill="white"/>
<path d="M134.646 14.4648H141.802V9.13207H134.249V5.59606C134.249 -0.0156281 128.815 -0.015625 128.815 -0.015625V9.13207H123.601V14.4648H128.828V30.1677C128.828 34.0442 130.08 37.1823 132.546 39.5041C135.011 41.8259 137.999 42.9499 141.782 42.9499V37.7402C139.175 37.7402 137.245 36.8746 135.871 35.0984C134.766 33.6305 134.193 31.8231 134.249 29.979V14.4648H134.646Z" fill="white"/>
<path d="M69.8936 14.171C72.5048 14.171 74.4429 15.0324 75.8215 16.8087C76.9252 18.2755 77.4977 20.0813 77.4433 21.924V37.3479C77.4433 42.9555 82.8765 42.9555 82.8765 42.9555V21.7394C82.8765 17.9162 81.6601 14.7986 79.2517 12.4522C76.7824 10.0976 73.7334 8.95312 69.9261 8.95312C66.1188 8.95312 63.1305 10.0812 60.6937 12.403C58.2568 14.7248 56.9756 17.8629 56.9756 21.7394V42.9555H62.4007V21.9363C62.3437 20.092 62.9164 18.284 64.0225 16.8169C65.3565 15.0324 67.2865 14.171 69.8936 14.171Z" fill="white"/>
<path d="M171.182 12.4499C168.717 10.0953 165.672 8.95081 161.857 8.95081C158.909 8.95081 156.436 9.64816 154.331 11.047V0H148.902V42.9532H154.327V21.934C154.27 20.0896 154.843 18.2817 155.949 16.8145C157.324 15.0424 159.254 14.181 161.861 14.181C164.468 14.181 166.41 15.0424 167.784 16.8186C168.878 18.2891 169.439 20.095 169.374 21.934V37.4071C169.374 43.0147 174.807 43.0147 174.807 43.0147V21.7371C174.815 17.9139 173.591 14.7963 171.182 12.4499Z" fill="white"/>
<path d="M192.355 42.2901L180.366 9.625H186.298L195.352 36.8507H195.478L204.284 9.625H209.839L198.04 42.286L192.355 42.2901Z" fill="white"/>
<path d="M213.975 19.2656C214.593 17.2657 215.613 15.4166 216.971 13.8344C218.332 12.274 220.015 11.0348 221.902 10.2041C226.239 8.43197 231.086 8.43197 235.424 10.2041C237.3 11.0396 238.974 12.2784 240.33 13.8344C241.688 15.4174 242.709 17.2662 243.33 19.2656C244.009 21.4428 244.346 23.7144 244.328 25.9972C244.347 28.2681 244.01 30.5277 243.33 32.6918C242.704 34.6806 241.683 36.519 240.33 38.0943C238.981 39.6458 237.308 40.8746 235.432 41.6919C231.086 43.4201 226.255 43.4201 221.91 41.6919C220.021 40.8803 218.337 39.651 216.979 38.0943C215.623 36.5205 214.6 34.6817 213.975 32.6918C213.291 30.5284 212.953 28.2684 212.973 25.9972C212.955 23.714 213.293 21.4422 213.975 19.2656ZM219.376 31.2684C219.828 32.6879 220.56 33.9997 221.529 35.1244C222.419 36.1388 223.516 36.9463 224.744 37.4913C225.974 38.0363 227.303 38.3177 228.646 38.3177C229.99 38.3177 231.318 38.0363 232.549 37.4913C233.777 36.9463 234.874 36.1388 235.764 35.1244C236.733 33.9992 237.466 32.6876 237.921 31.2684C238.955 27.8238 238.946 24.1452 237.897 20.7055C237.438 19.2795 236.705 17.9593 235.74 16.8208C234.856 15.7905 233.758 14.9699 232.525 14.417C231.293 13.8758 229.965 13.5965 228.622 13.5965C227.279 13.5965 225.951 13.8758 224.719 14.417C223.486 14.9699 222.389 15.7905 221.504 16.8208C220.539 17.9586 219.807 19.279 219.351 20.7055C218.308 24.1418 218.308 27.8157 219.351 31.252L219.376 31.2684Z" fill="white"/>
<path d="M283.714 15.3192C282.382 14.1843 280.592 13.6155 278.346 13.6128C276.679 13.5541 275.025 13.9239 273.537 14.6875C272.291 15.362 271.229 16.3388 270.447 17.5303C269.649 18.7718 269.086 20.1533 268.789 21.6037C268.454 23.1711 268.286 24.7706 268.29 26.3744C268.288 27.8649 268.466 29.35 268.822 30.7965C269.144 32.1601 269.705 33.4547 270.476 34.6197C271.228 35.7384 272.235 36.6584 273.411 37.3024C274.739 38.0077 276.223 38.3565 277.721 38.3157C280.341 38.3157 282.391 37.6197 283.872 36.2277C285.354 34.8357 286.258 32.8776 286.585 30.3535H292.018C291.434 34.3981 289.948 37.5144 287.558 39.7022C285.168 41.89 281.911 42.9839 277.786 42.9839C275.555 43.0248 273.337 42.6177 271.262 41.7861C269.439 41.0376 267.813 39.869 266.514 38.3731C265.209 36.8333 264.232 35.0374 263.644 33.0978C262.978 30.9196 262.651 28.65 262.675 26.3703C262.658 24.0517 262.973 21.7428 263.611 19.5157C264.184 17.4908 265.148 15.6013 266.45 13.9573C267.74 12.362 269.374 11.0865 271.226 10.2285C273.328 9.28519 275.609 8.82162 277.908 8.87072C279.646 8.8586 281.378 9.0821 283.057 9.53526C284.588 9.944 286.029 10.6397 287.307 11.5863C288.546 12.5293 289.576 13.7239 290.331 15.0936C291.166 16.6456 291.677 18.3546 291.832 20.1146H286.329C285.913 18.0471 285.041 16.4487 283.714 15.3192Z" fill="white"/>
<path d="M320.794 40.211C318.38 42.0597 315.342 42.9854 311.679 42.9882C309.38 43.0422 307.095 42.612 304.969 41.7247C303.132 40.927 301.499 39.7179 300.192 38.1887C298.86 36.601 297.87 34.7499 297.285 32.7534C296.619 30.5187 296.252 28.2036 296.194 25.8701C296.169 23.5523 296.549 21.2482 297.317 19.0647C298.016 17.0855 299.088 15.2621 300.472 13.695C301.812 12.1871 303.45 10.981 305.281 10.1549C307.196 9.29991 309.27 8.86914 311.363 8.89145C314.233 8.89145 316.616 9.49172 318.511 10.6923C320.358 11.8465 321.918 13.4141 323.072 15.2743C324.219 17.1335 325.023 19.1877 325.444 21.3372C325.87 23.3932 326.048 25.4937 325.976 27.593H301.81C301.763 28.9689 301.931 30.3437 302.309 31.6664C302.666 32.9203 303.284 34.0826 304.121 35.0752C304.993 36.0964 306.081 36.9066 307.304 37.4462C308.743 38.067 310.297 38.3691 311.861 38.3323C314.113 38.3323 315.955 37.8058 317.388 36.753C318.82 35.7001 319.767 34.0989 320.226 31.9494H325.477C324.771 35.603 323.21 38.3569 320.794 40.211ZM319.517 19.237C318.823 17.5517 317.646 16.1153 316.137 15.1129C314.629 14.1105 312.859 13.5881 311.055 13.613C309.78 13.5932 308.516 13.8404 307.341 14.3391C306.271 14.8013 305.306 15.4781 304.502 16.3286C303.706 17.1835 303.071 18.179 302.629 19.2657C302.166 20.4033 301.892 21.6106 301.818 22.8386H320.364C320.284 21.5984 319.997 20.3807 319.517 19.237Z" fill="white"/>
<path d="M256.171 9.625V42.286H250.872V9.625H256.171Z" fill="white"/>
<path d="M253.519 6.08044C255.051 6.08044 256.293 4.82422 256.293 3.27459C256.293 1.72497 255.051 0.46875 253.519 0.46875C251.988 0.46875 250.746 1.72497 250.746 3.27459C250.746 4.82422 251.988 6.08044 253.519 6.08044Z" fill="white"/>
<path d="M31.9221 32.6706C29.8988 32.6722 27.8954 32.2681 26.0274 31.4816C24.1595 30.6951 22.4642 29.5418 21.0394 28.0885C18.7909 25.823 15.7468 24.551 12.5734 24.551C9.40001 24.551 6.35588 25.823 4.10733 28.0885L3.8154 28.3838L0 24.5197L0.287875 24.2243C3.54931 20.9338 7.96738 19.0859 12.5734 19.0859C17.1794 19.0859 21.5975 20.9338 24.8589 24.2243C25.7877 25.1664 26.8911 25.9139 28.1059 26.424C29.3207 26.934 30.623 27.1965 31.9383 27.1965C33.2535 27.1965 34.5559 26.934 35.7707 26.424C36.9855 25.9139 38.0889 25.1664 39.0177 24.2243L39.3055 23.929L43.1291 27.789L42.8371 28.0844C41.409 29.5426 39.7086 30.699 37.8348 31.4863C35.9609 32.2737 33.9511 32.6762 31.9221 32.6706Z" fill="white"/>
</g>
<defs>
<clipPath id="clip0_12031_21507">
<rect width="326" height="43" fill="white"/>
</clipPath>
</defs>
</svg>
